<svg xmlns="http://www.w3.org/2000/svg"  viewBox="0 0 64 64" width="48px" height="48px"><path d="M 22 12 C 16.486 12 12 16.486 12 22 L 12 23 C 12 24.104 12.896 25 14 25 C 15.104 25 16 24.104 16 23 L 16 22 C 16 18.691 18.691 16 22 16 L 42 16 C 45.309 16 48 18.691 48 22 L 48 24 L 45.107422 24 C 44.213422 24 43.685313 25.003281 44.195312 25.738281 L 49.089844 32.8125 C 49.529844 33.4495 50.471109 33.4495 50.912109 32.8125 L 55.806641 25.738281 C 56.314641 25.003281 55.788531 24 54.894531 24 L 52 24 L 52 22 C 52 16.486 47.514 12 42 12 L 22 12 z M 14 30.708984 C 13.654375 30.708984 13.308391 30.869 13.087891 31.1875 L 8.1953125 38.261719 C 7.6873125 38.996719 8.2134219 40 9.1074219 40 L 12 40 L 12 42 C 12 47.514 16.486 52 22 52 L 42 52 C 47.514 52 52 47.514 52 42 L 52 41 C 52 39.896 51.104 39 50 39 C 48.896 39 48 39.896 48 41 L 48 42 C 48 45.309 45.309 48 42 48 L 22 48 C 18.691 48 16 45.309 16 42 L 16 40 L 18.892578 40 C 19.786578 40 20.314688 38.996719 19.804688 38.261719 L 14.910156 31.1875 C 14.690156 30.869 14.345625 30.708984 14 30.708984 z"/></svg>